<svg xmlns="http://www.w3.org/2000/svg" width="450" height="450" viewBox="0 0 450 450" version="1.1"><path d="M 106.680 78.750 C 103.889 139.576, 82.508 209.710, 48.529 269.500 C 45.404 275, 42.768 279.871, 42.673 280.323 C 42.578 280.776, 49.250 283.514, 57.500 286.406 C 97.030 300.267, 132.936 320.531, 167.947 348.740 C 175.292 354.658, 181.802 359.881, 182.415 360.346 C 183.052 360.830, 185.987 360.478, 189.265 359.525 L 195 357.858 194.990 352.679 C 194.939 327.423, 188.815 297.336, 180.320 280.610 L 177.328 274.719 169.414 274.291 C 144.454 272.941, 126.503 262.118, 117.078 242.736 C 111.405 231.068, 111.418 230.654, 117.500 229.842 C 126.321 228.665, 141.667 228.957, 148.685 230.436 C 158.586 232.522, 165.575 235.456, 173.500 240.855 C 190.193 252.227, 200.243 272.154, 204.085 301.500 C 205.253 310.424, 204.787 348.419, 203.440 354.105 L 202.822 356.710 207.661 355.915 C 213.912 354.887, 239.078 354.886, 245.323 355.912 L 250.145 356.705 249.323 343.102 C 247.094 306.259, 251.184 279.173, 261.720 261 C 266.608 252.568, 277.881 241.352, 285.500 237.341 C 297.291 231.133, 304.787 229.500, 321.500 229.500 C 329.750 229.500, 337.728 229.844, 339.230 230.264 L 341.960 231.028 339.921 236.264 C 336.552 244.916, 331.863 251.853, 324.991 258.348 C 314.420 268.340, 301.365 273.469, 284.500 274.256 L 276.500 274.629 273.257 281.064 C 265.062 297.330, 260.068 320.513, 259.717 343.924 L 259.500 358.348 264.864 359.720 C 271.051 361.304, 269.306 362.171, 283.694 350.359 C 305.611 332.364, 330.551 316.181, 356 303.441 C 373.780 294.539, 379.881 291.961, 396.500 286.323 C 403.650 283.897, 410.074 281.717, 410.776 281.478 C 411.705 281.161, 411.408 280.018, 409.679 277.271 C 401.062 263.577, 384.817 230.607, 376.855 210.653 C 359.870 168.086, 347.006 109.765, 347.001 75.309 C 347.001 70.001, 346.559 65.845, 345.956 65.473 C 345.381 65.118, 342.794 66.724, 340.206 69.043 C 329.145 78.952, 305.916 102.365, 296.587 113.007 C 278.601 133.525, 261.114 156.620, 262.619 157.869 C 263.104 158.271, 266.200 159.663, 269.500 160.961 C 276.434 163.689, 290.250 171.391, 292.006 173.507 C 292.854 174.529, 291.121 174.242, 286.060 172.521 C 266.877 165.996, 247.387 163.561, 220.181 164.290 C 198.091 164.882, 184.378 167.017, 168.021 172.410 C 163.908 173.767, 160.389 174.722, 160.200 174.533 C 159.448 173.781, 176.559 164.011, 184.033 160.925 L 191.993 157.638 190.343 155.069 C 181.749 141.692, 158.475 113.527, 142.031 96.605 C 129.118 83.317, 109.442 65, 108.081 65 C 107.657 65, 107.027 71.188, 106.680 78.750 M 3 295.500 C 3 295.775, 3.225 296, 3.500 296 C 3.775 296, 4 295.775, 4 295.500 C 4 295.225, 3.775 295, 3.500 295 C 3.225 295, 3 295.225, 3 295.500 M 156 371.500 C 156 371.775, 156.225 372, 156.500 372 C 156.775 372, 157 371.775, 157 371.500 C 157 371.225, 156.775 371, 156.500 371 C 156.225 371, 156 371.225, 156 371.500" stroke="none" fill="#ef5604" fill-rule="evenodd"/><path d="M 81.654 20.624 C 81.294 26.502, 81 35.304, 81 40.185 C 81 51.443, 78.407 86.814, 76.432 102.500 C 68.361 166.605, 51.504 214.383, 15.991 273.809 C 9.396 284.845, 4 294.466, 4 295.187 C 4.001 296.041, 10.638 298.331, 22.969 301.733 C 65.171 313.375, 94.612 326.994, 128 350.317 C 138.024 357.319, 155.547 370.412, 157 371.985 C 157.275 372.283, 162.450 376.859, 168.500 382.154 C 183.730 395.483, 200.159 412.532, 221 436.632 C 223.475 439.495, 226.028 441.873, 226.673 441.918 C 227.318 441.963, 234.567 434.463, 242.782 425.250 C 276.705 387.208, 309.917 358.902, 346 337.277 C 375.728 319.462, 397.105 310.744, 438.859 299.409 C 444.556 297.863, 449.420 296.068, 449.668 295.422 C 449.917 294.775, 444.661 285.165, 437.990 274.066 C 400.751 212.109, 380.465 153.613, 374.505 91 C 373.694 82.475, 372.726 60.763, 372.354 42.750 C 371.982 24.737, 371.409 10, 371.081 10 C 370.754 10, 367.564 12.534, 363.993 15.631 C 360.422 18.727, 354.818 23.565, 351.541 26.381 C 326.407 47.972, 320.353 53.582, 296.943 76.966 C 275.116 98.768, 263.759 111.537, 249.999 129.748 L 241.500 140.996 226.872 140.998 L 212.245 141 203.613 129.508 C 198.865 123.188, 190.867 113.175, 185.838 107.258 C 174.417 93.819, 139.589 59.033, 123 44.497 C 116.125 38.472, 110.275 33.292, 110 32.985 C 108.813 31.659, 83.747 10.473, 83.063 10.218 C 82.648 10.063, 82.014 14.745, 81.654 20.624 M 106.680 78.750 C 103.889 139.576, 82.508 209.710, 48.529 269.500 C 45.404 275, 42.768 279.871, 42.673 280.323 C 42.578 280.776, 49.250 283.514, 57.500 286.406 C 97.030 300.267, 132.936 320.531, 167.947 348.740 C 175.292 354.658, 181.802 359.881, 182.415 360.346 C 183.052 360.830, 185.987 360.478, 189.265 359.525 L 195 357.858 194.990 352.679 C 194.939 327.423, 188.815 297.336, 180.320 280.610 L 177.328 274.719 169.414 274.291 C 144.454 272.941, 126.503 262.118, 117.078 242.736 C 111.405 231.068, 111.418 230.654, 117.500 229.842 C 126.321 228.665, 141.667 228.957, 148.685 230.436 C 158.586 232.522, 165.575 235.456, 173.500 240.855 C 190.193 252.227, 200.243 272.154, 204.085 301.500 C 205.253 310.424, 204.787 348.419, 203.440 354.105 L 202.822 356.710 207.661 355.915 C 213.912 354.887, 239.078 354.886, 245.323 355.912 L 250.145 356.705 249.323 343.102 C 247.094 306.259, 251.184 279.173, 261.720 261 C 266.608 252.568, 277.881 241.352, 285.500 237.341 C 297.291 231.133, 304.787 229.500, 321.500 229.500 C 329.750 229.500, 337.728 229.844, 339.230 230.264 L 341.960 231.028 339.921 236.264 C 336.552 244.916, 331.863 251.853, 324.991 258.348 C 314.420 268.340, 301.365 273.469, 284.500 274.256 L 276.500 274.629 273.257 281.064 C 265.062 297.330, 260.068 320.513, 259.717 343.924 L 259.500 358.348 264.864 359.720 C 271.051 361.304, 269.306 362.171, 283.694 350.359 C 305.611 332.364, 330.551 316.181, 356 303.441 C 373.780 294.539, 379.881 291.961, 396.500 286.323 C 403.650 283.897, 410.074 281.717, 410.776 281.478 C 411.705 281.161, 411.408 280.018, 409.679 277.271 C 401.062 263.577, 384.817 230.607, 376.855 210.653 C 359.870 168.086, 347.006 109.765, 347.001 75.309 C 347.001 70.001, 346.559 65.845, 345.956 65.473 C 345.381 65.118, 342.794 66.724, 340.206 69.043 C 329.145 78.952, 305.916 102.365, 296.587 113.007 C 278.601 133.525, 261.114 156.620, 262.619 157.869 C 263.104 158.271, 266.200 159.663, 269.500 160.961 C 276.434 163.689, 290.250 171.391, 292.006 173.507 C 292.854 174.529, 291.121 174.242, 286.060 172.521 C 266.877 165.996, 247.387 163.561, 220.181 164.290 C 198.091 164.882, 184.378 167.017, 168.021 172.410 C 163.908 173.767, 160.389 174.722, 160.200 174.533 C 159.448 173.781, 176.559 164.011, 184.033 160.925 L 191.993 157.638 190.343 155.069 C 181.749 141.692, 158.475 113.527, 142.031 96.605 C 129.118 83.317, 109.442 65, 108.081 65 C 107.657 65, 107.027 71.188, 106.680 78.750" stroke="none" fill="#050404" fill-rule="evenodd"/></svg>